<?xml version="1.0" encoding="UTF-8" standalone="no"?>
<!-- Generator: Adobe Illustrator 16.0.0, SVG Export Plug-In . SVG Version: 6.00 Build 0)  -->

<svg
   xmlns:dc="http://purl.org/dc/elements/1.1/"
   xmlns:cc="http://creativecommons.org/ns#"
   xmlns:rdf="http://www.w3.org/1999/02/22-rdf-syntax-ns#"
   xmlns:svg="http://www.w3.org/2000/svg"
   xmlns="http://www.w3.org/2000/svg"
   xmlns:sodipodi="http://sodipodi.sourceforge.net/DTD/sodipodi-0.dtd"
   xmlns:inkscape="http://www.inkscape.org/namespaces/inkscape"
   version="1.1"
   id="Capa_1"
   x="0px"
   y="0px"
   width="349.03px"
   height="349.031px"
   viewBox="0 0 349.03 349.031"
   style="enable-background:new 0 0 349.03 349.031;"
   xml:space="preserve"
   sodipodi:docname="plus.svg"
   inkscape:version="0.92.4 (5da689c313, 2019-01-14)"><metadata
   id="metadata895"><rdf:RDF><cc:Work
       rdf:about=""><dc:format>image/svg+xml</dc:format><dc:type
         rdf:resource="http://purl.org/dc/dcmitype/StillImage" /></cc:Work></rdf:RDF></metadata><defs
   id="defs893" /><sodipodi:namedview
   pagecolor="#ffffff"
   bordercolor="#666666"
   borderopacity="1"
   objecttolerance="10"
   gridtolerance="10"
   guidetolerance="10"
   inkscape:pageopacity="0"
   inkscape:pageshadow="2"
   inkscape:window-width="1920"
   inkscape:window-height="1137"
   id="namedview891"
   showgrid="false"
   inkscape:zoom="2.7733926"
   inkscape:cx="174.515"
   inkscape:cy="178.48176"
   inkscape:window-x="-8"
   inkscape:window-y="-8"
   inkscape:window-maximized="1"
   inkscape:current-layer="Capa_1" />
<g
   id="g858"
   style="fill:#ffffff">
	<path
   d="M349.03,141.226v66.579c0,5.012-4.061,9.079-9.079,9.079H216.884v123.067c0,5.019-4.067,9.079-9.079,9.079h-66.579   c-5.009,0-9.079-4.061-9.079-9.079V216.884H9.079c-5.016,0-9.079-4.067-9.079-9.079v-66.579c0-5.013,4.063-9.079,9.079-9.079   h123.068V9.079c0-5.018,4.069-9.079,9.079-9.079h66.579c5.012,0,9.079,4.061,9.079,9.079v123.068h123.067   C344.97,132.147,349.03,136.213,349.03,141.226z"
   id="path856"
   style="fill:#ffffff" />
</g>
<g
   id="g860">
</g>
<g
   id="g862">
</g>
<g
   id="g864">
</g>
<g
   id="g866">
</g>
<g
   id="g868">
</g>
<g
   id="g870">
</g>
<g
   id="g872">
</g>
<g
   id="g874">
</g>
<g
   id="g876">
</g>
<g
   id="g878">
</g>
<g
   id="g880">
</g>
<g
   id="g882">
</g>
<g
   id="g884">
</g>
<g
   id="g886">
</g>
<g
   id="g888">
</g>
</svg>